# xmcd
#
# Track frame offsets: 
#        150
#        33725
#        64965
#        83300
#        99875
#        133850
#        139850
#        174417
#        183135
#        198725
#        205550
#        245497
#        262237
#        275497
#
# Disc length: 3887 seconds
#
# Revision: 4
# Processed by: cddbd v1.5.2PL0 Copyright (c) Steve Scherf et al.
# Submitted via: ExactAudioCopy v0.99pb3
#
DISCID=ca0f2d0e
DTITLE=Mozzafiato, Charles Neidich - Beethoven Complete Masterpieces -
DTITLE=CD30
DYEAR=1993
DGENRE=Wind
TTITLE0=Octet in E flat Major Op.103 I. Allegro
TTITLE1=Octet in E flat Major Op.103 II. Andante
TTITLE2=Octet in E flat Major Op.103 III. Menuetto
TTITLE3=Octet in E flat Major Op.103 IV. Finale. Presto
TTITLE4=Rondino Octet in E flat Major WoO 25
TTITLE5=March Sextet in B flat Major WoO 29
TTITLE6=Duo for Clarinet and Bassoon in C Major WoO 27 No.1: I. Allegr
TTITLE6=o commodo
TTITLE7=Duo for Clarinet and Bassoon in C Major WoO 27 No.1: II. Largh
TTITLE7=etto sostenuto
TTITLE8=Duo for Clarinet and Bassoon in C Major WoO 27 No.1: III. Rond
TTITLE8=o allegretto
TTITLE9=March Sextet in B flat Major WoO 29 (Repetition)
TTITLE10=Sextet in E flat Major Op.71: I. Adagio. Allegro
TTITLE11=Sextet in E flat Major Op.71: II. Adagio
TTITLE12=Sextet in E flat Major Op.71: III. Menuetto. Quasi allegretto
TTITLE13=Sextet in E flat Major Op.71: IV. Rondo. Allegro
EXTD=YEAR: 1993
EXTT0=
EXTT1=
EXTT2=
EXTT3=
EXTT4=
EXTT5=
EXTT6=
EXTT7=
EXTT8=
EXTT9=
EXTT10=
EXTT11=
EXTT12=
EXTT13=
PLAYORDER=
